<svg width="96" height="96" xmlns="http://www.w3.org/2000/svg" xmlns:xlink="http://www.w3.org/1999/xlink" xml:space="preserve" overflow="hidden"><g><path d="M11.622 55.333 20.178 58.9C21.378 59.4 22.356 58.258 22.36 56.347L22.371 50.157C22.371 48.247 21.403 46.292 20.201 45.792L11.645 42.23C10.445 41.73 9.466 42.872 9.463 44.783L9.452 50.973C9.449 52.878 10.42 54.833 11.622 55.333Z" fill="#A5A5A5"/><path d="M36.794 65.814 45.35 69.376C45.5246 69.4518 45.7126 69.4919 45.903 69.494 46.838 69.494 47.529 68.43 47.532 66.823L47.543 60.633C47.543 58.723 46.575 56.768 45.373 56.268L36.818 52.706C36.6434 52.6303 36.4553 52.5902 36.265 52.588 35.33 52.588 34.638 53.652 34.635 55.259L34.624 61.449C34.621 63.359 35.592 65.314 36.794 65.814ZM38.631 57.794 43.357 59.761C43.4755 60.0342 43.5387 60.3282 43.543 60.626L43.537 64.289 38.811 62.321C38.6919 62.0479 38.6283 61.7539 38.624 61.456Z" fill="#A5A5A5"/><path d="M3.26 31.171C3.14581 31.2153 3.036 31.2703 2.932 31.335 2.3748 31.7058 2.04001 32.3307 2.04 33L2 55.481C1.99848 56.2899 2.48432 57.02 3.231 57.331L5.262 58.176 6.556 60.776C6.77067 61.2075 7.13395 61.547 7.579 61.732L20.365 67.056C22.87 68.101 25.372 67.116 26.741 64.556L28.127 61.962C28.225 62.1361 28.3083 62.3181 28.376 62.506L30.107 67.221C31.18 70.142 32.981 72.311 35.048 73.172L47.835 78.5C48.6359 78.8334 49.5604 78.6125 50.124 77.953L51.084 76.83 52.768 76.992 53 77 53.236 76.977C53.4131 76.959 53.587 76.9173 53.753 76.853L66.753 71.567C67.3603 71.321 67.8086 70.7931 67.953 70.154L70.975 56.736 81.929 52.2C82.0375 52.1522 82.1631 52.1647 82.26 52.233 82.3607 52.2958 82.4204 52.4074 82.417 52.526L82.417 53.238C82.4172 53.3912 82.318 53.5267 82.172 53.573 80.3798 54.1561 79.168 55.8283 79.172 57.713L79.172 58.789C79.1757 61.1925 81.1271 63.138 83.5306 63.1344 84.0675 63.1336 84.5996 63.0334 85.1 62.839L86.07 62.461C90.8655 60.6126 94.021 55.9944 94 50.855L94 48.578C93.9994 43.6141 89.9748 39.5905 85.0108 39.5912 83.8732 39.5913 82.746 39.8074 81.689 40.228L53.525 51.438 21.325 38.031 21.925 35.754 32.925 31.196C33.1051 31.1214 33.3116 31.207 33.3862 31.3872 33.4039 31.4299 33.413 31.4757 33.413 31.522L33.413 32.234C33.4132 32.3872 33.314 32.5227 33.168 32.569 31.3758 33.1521 30.164 34.8243 30.168 36.709L30.168 37.785C30.167 40.1874 32.1137 42.1358 34.5161 42.1369 35.058 42.1371 35.5952 42.0361 36.1 41.839L37.07 41.461C41.8655 39.6126 45.021 34.9944 45 29.855L45 27.578C44.9996 22.6141 40.9752 18.5903 36.0112 18.5908 34.8695 18.5909 33.7383 18.8085 32.678 19.232ZM34.168 22.945C36.7268 21.926 39.6272 23.1743 40.6462 25.7332 40.8799 26.3201 41 26.9462 41 27.578L41 29.855C41.0144 33.3438 38.873 36.4791 35.618 37.735L34.647 38.113C34.4667 38.1842 34.2628 38.0959 34.1916 37.9156 34.1751 37.874 34.1668 37.8297 34.167 37.785L34.167 36.709C34.1666 36.5564 34.2648 36.421 34.41 36.374 36.205 35.7934 37.42 34.1205 37.417 32.234L37.417 31.522C37.4176 29.1185 35.4696 27.1695 33.0661 27.1689 32.4944 27.1688 31.9282 27.2813 31.4 27.5L19.484 32.438C18.9082 32.6768 18.4767 33.1705 18.317 33.773L17.6 36.48 9.286 33.018ZM50.964 72.8 50.432 72.749C49.7825 72.6861 49.1431 72.944 48.719 73.44L48.029 74.249 36.585 69.482C35.83 69.167 34.663 68.026 33.862 65.845L32.131 61.13C31.353 59.01 29.831 57.621 28.166 57.505 28.089 57.5 28.014 57.497 27.938 57.497 26.6639 57.5204 25.5114 58.2591 24.958 59.407L23.213 62.674C22.671 63.688 22.19 63.488 21.903 63.374L9.803 58.337 8.511 55.727C8.29702 55.2953 7.93398 54.9557 7.489 54.771L6 54.152 6.035 36 51 54.718ZM90 50.855C90.0144 54.3438 87.873 57.4791 84.618 58.735L83.647 59.113C83.4667 59.1842 83.2628 59.0959 83.1916 58.9156 83.1751 58.874 83.1668 58.8297 83.167 58.785L83.167 57.709C83.1665 57.5564 83.2648 57.421 83.41 57.374 85.205 56.7934 86.42 55.1205 86.417 53.234L86.417 52.522C86.4176 50.1185 84.4696 48.1695 82.0661 48.1689 81.4944 48.1688 80.9282 48.2813 80.4 48.5L68.484 53.438C67.8841 53.6872 67.4426 54.2122 67.3 54.846L64.278 68.255 55 72.028 55 55.156 83.168 43.945C85.7268 42.926 88.6272 44.1743 89.6462 46.7332 89.8799 47.3201 90 47.9462 90 48.578Z" fill="#A5A5A5"/></g></svg>